<svg width="133" height="133" viewBox="0 0 133 133" fill="none" xmlns="http://www.w3.org/2000/svg">
<path d="M99.0757 29.5555L93.1403 96.0478L66.4601 103.444L39.8534 96.0582L33.9243 29.5555H99.0757Z" fill="#264DE4"/>
<path d="M88.0589 91.8138L93.1311 34.9931H66.5V97.7908L88.0589 91.8138Z" fill="#2965F1"/>
<path d="M47.5167 59.658L48.2477 67.8142H66.4999V59.658H47.5167Z" fill="#EBEBEB"/>
<path d="M66.4999 43.1494H66.4717H46.0479L46.7893 51.3058H66.4999V43.1494Z" fill="#EBEBEB"/>
<path d="M66.4999 89.3265V80.8406L66.4642 80.8501L57.3805 78.3973L56.7998 71.8923H52.3858H48.6122L49.7549 84.6988L66.4624 89.3369L66.4999 89.3265Z" fill="#EBEBEB"/>
<path d="M76.5154 67.8141L75.5686 78.3922L66.4718 80.8475V89.3331L83.1926 84.6989L83.3153 83.3209L85.2319 61.8481L85.4309 59.6579L86.9034 43.1494H66.4718V51.3058H77.9648L77.2227 59.6579H66.4718V67.8141H76.5154Z" fill="white"/>
</svg>
