<svg width="133" height="133" viewBox="0 0 133 133" fill="none" xmlns="http://www.w3.org/2000/svg">
<path d="M54.1852 103.444C60.983 103.444 66.5 97.9274 66.5 91.1297V78.8149H54.1852C47.3874 78.8149 41.8704 84.3319 41.8704 91.1297C41.8704 97.9274 47.3874 103.444 54.1852 103.444Z" fill="#0ACF83"/>
<path d="M41.8704 66.4999C41.8704 59.7021 47.3874 54.1851 54.1852 54.1851H66.5V78.8147H54.1852C47.3874 78.8147 41.8704 73.2977 41.8704 66.4999Z" fill="#A259FF"/>
<path d="M41.8704 41.8704C41.8704 35.0726 47.3874 29.5555 54.1852 29.5555H66.5V54.1852H54.1852C47.3874 54.1852 41.8704 48.6681 41.8704 41.8704Z" fill="#F24E1E"/>
<path d="M66.5 29.5555H78.8148C85.6126 29.5555 91.1297 35.0726 91.1297 41.8704C91.1297 48.6681 85.6126 54.1852 78.8148 54.1852H66.5V29.5555Z" fill="#FF7262"/>
<path d="M91.1297 66.4999C91.1297 73.2977 85.6126 78.8147 78.8148 78.8147C72.017 78.8147 66.5 73.2977 66.5 66.4999C66.5 59.7021 72.017 54.1851 78.8148 54.1851C85.6126 54.1851 91.1297 59.7021 91.1297 66.4999Z" fill="#1ABCFE"/>
</svg>
