<svg width="133" height="133" viewBox="0 0 133 133" fill="none" xmlns="http://www.w3.org/2000/svg">
<path d="M66.5001 30.2983C46.0988 30.2983 29.5555 46.7468 29.5555 67.0376C29.5555 83.2703 40.1413 97.0417 54.8206 101.9C56.6669 102.24 57.3449 101.103 57.3449 100.132C57.3449 99.2563 57.3104 96.3619 57.2948 93.2921C47.0165 95.5145 44.8477 88.9573 44.8477 88.9573C43.1671 84.7107 40.7457 83.5818 40.7457 83.5818C37.3939 81.3014 40.9984 81.3481 40.9984 81.3481C44.7083 81.6074 46.6618 85.1343 46.6618 85.1343C49.9568 90.751 55.3045 89.127 57.4127 88.1886C57.7442 85.8137 58.7018 84.1932 59.7582 83.2758C51.5525 82.3465 42.9261 79.1963 42.9261 65.1189C42.9261 61.108 44.3693 57.8304 46.7328 55.2576C46.3492 54.3321 45.0847 50.5955 47.0906 45.5349C47.0906 45.5349 50.193 44.5474 57.253 49.3008C60.1998 48.4866 63.3604 48.0786 66.5001 48.0647C69.6399 48.0786 72.8028 48.4866 75.7553 49.3008C82.807 44.5474 85.905 45.5349 85.905 45.5349C87.9158 50.5955 86.6508 54.3321 86.2672 55.2576C88.6359 57.8304 90.0693 61.1077 90.0693 65.1189C90.0693 79.2297 81.4266 82.337 73.2 83.2464C74.525 84.3865 75.7058 86.6225 75.7058 90.0499C75.7058 94.9656 75.6629 98.9221 75.6629 100.132C75.6629 101.11 76.3279 102.256 78.2008 101.895C92.872 97.0313 103.444 83.2648 103.444 67.0376C103.444 46.7468 86.9035 30.2983 66.5001 30.2983Z" fill="#161614"/>
<path d="M43.3925 82.6344C43.3113 82.8167 43.0222 82.8715 42.7594 82.7464C42.4913 82.6266 42.3407 82.3776 42.4276 82.1944C42.5073 82.0065 42.7965 81.9541 43.0639 82.0803C43.3325 82.1998 43.4855 82.4511 43.3925 82.6344V82.6344ZM45.2098 84.2468C45.0336 84.4093 44.6891 84.3338 44.4553 84.0771C44.2136 83.8209 44.1684 83.4786 44.3472 83.3135C44.5289 83.1513 44.863 83.2271 45.1052 83.4835C45.3468 83.7425 45.3938 84.0828 45.2095 84.2471L45.2098 84.2468ZM46.4566 86.3099C46.23 86.4663 45.8597 86.3197 45.6311 85.9929C45.4048 85.6665 45.4048 85.2746 45.636 85.1175C45.8655 84.9605 46.23 85.1017 46.4618 85.4259C46.6878 85.7581 46.6878 86.15 46.4563 86.3102L46.4566 86.3099ZM48.5648 88.6994C48.3623 88.9213 47.9311 88.8619 47.6153 88.5588C47.2925 88.2626 47.2024 87.8422 47.4055 87.62C47.6104 87.3976 48.0441 87.4601 48.3623 87.7607C48.683 88.0563 48.781 88.4799 48.5651 88.6994H48.5648ZM51.2896 89.5062C51.2007 89.7938 50.7852 89.9246 50.3668 89.8024C49.9489 89.6765 49.6754 89.3394 49.7597 89.0486C49.8467 88.7591 50.2639 88.6228 50.6855 88.7536C51.1027 88.8789 51.3768 89.2135 51.2899 89.5062H51.2896ZM54.3911 89.8482C54.4015 90.1514 54.0466 90.4026 53.6073 90.4081C53.1655 90.4176 52.8082 90.1724 52.8036 89.8745C52.8036 89.5685 53.1504 89.3195 53.592 89.3123C54.0312 89.3036 54.3911 89.5471 54.3911 89.8482V89.8482ZM57.4375 89.7321C57.4903 90.0277 57.1849 90.3314 56.7488 90.4121C56.32 90.4899 55.923 90.3075 55.8683 90.0145C55.8149 89.7114 56.1261 89.408 56.5541 89.3293C56.991 89.2538 57.3819 89.4316 57.4375 89.7321" fill="#161614"/>
</svg>
