<svg width="133" height="133" viewBox="0 0 133 133" fill="none" xmlns="http://www.w3.org/2000/svg">
<path d="M103.444 29.3914H29.5555V102.87H103.444V29.3914Z" fill="#F7DF1E"/>
<path d="M79.1901 86.7967C80.6785 89.2133 82.6148 90.9896 86.0395 90.9896C88.9165 90.9896 90.7543 89.5597 90.7543 87.5839C90.7543 85.2163 88.8661 84.3777 85.6994 83.0003L83.9636 82.2597C78.9532 80.137 75.6247 77.4777 75.6247 71.8561C75.6247 66.6776 79.5924 62.7354 85.7932 62.7354C90.2078 62.7354 93.3815 64.2633 95.6685 68.2638L90.2617 71.7161C89.0713 69.5934 87.787 68.7571 85.7932 68.7571C83.7595 68.7571 82.4706 70.0401 82.4706 71.7161C82.4706 73.7875 83.7607 74.6261 86.7397 75.909L88.4755 76.6485C94.3749 79.1642 97.7057 81.729 97.7057 87.4953C97.7057 93.7118 92.7951 97.1175 86.2002 97.1175C79.7519 97.1175 75.586 94.0617 73.5476 90.0565L79.1901 86.7967ZM54.6625 87.395C55.7533 89.3194 56.7455 90.9465 59.1311 90.9465C61.4122 90.9465 62.8513 90.0589 62.8513 86.6077V63.1296H69.7945V86.701C69.7945 93.8506 65.5793 97.1046 59.4266 97.1046C53.8673 97.1046 50.6479 94.2436 49.0106 90.7977L54.6625 87.395Z" fill="black"/>
</svg>
