<svg width="133" height="133" viewBox="0 0 133 133" fill="none" xmlns="http://www.w3.org/2000/svg">
<path d="M46.9902 55.8892H60.9264V56.9915H48.2677V65.2881H60.1715V66.3905H48.2677V75.4993H61.0715V76.6016H46.9902V55.8892ZM62.1748 55.8892H63.6555L70.2171 64.998L76.9239 55.8892L86.0461 44.3189L71.0591 65.9553L78.782 76.6016H77.2432L70.2171 66.9126L63.1619 76.6016H61.6522L69.4332 65.9553L62.1748 55.8892ZM79.3336 56.9915V55.8892H95.215V56.9915H87.8986V76.6016H86.6211V56.9915H79.3336Z" fill="black"/>
<path d="M29.5555 55.8892H31.1524L53.172 88.6811L44.0723 76.6016L30.8911 57.4556L30.833 76.6016H29.5555V55.8892Z" fill="black"/>
<path d="M95.0863 75.1666C95.3504 75.1666 95.543 74.9653 95.543 74.7052C95.543 74.4451 95.3504 74.2439 95.0863 74.2439C94.8253 74.2439 94.6295 74.4451 94.6295 74.7052C94.6295 74.9653 94.8253 75.1666 95.0863 75.1666ZM96.3415 73.9528C96.3415 74.7207 96.8977 75.2223 97.7087 75.2223C98.5724 75.2223 99.0944 74.7052 99.0944 73.8073V70.6461H98.3985V73.8042C98.3985 74.3027 98.1468 74.569 97.7025 74.569C97.3047 74.569 97.0344 74.3213 97.0251 73.9528H96.3415ZM100.005 73.9126C100.055 74.7114 100.723 75.2223 101.717 75.2223C102.779 75.2223 103.444 74.6867 103.444 73.8321C103.444 73.1602 103.065 72.7887 102.146 72.575L101.652 72.4543C101.067 72.318 100.831 72.1354 100.831 71.8165C100.831 71.414 101.198 71.1508 101.748 71.1508C102.27 71.1508 102.63 71.4078 102.696 71.8196H103.373C103.333 71.0672 102.668 70.5377 101.757 70.5377C100.779 70.5377 100.126 71.0672 100.126 71.8629C100.126 72.5193 100.496 72.9094 101.307 73.0983L101.885 73.2376C102.478 73.377 102.739 73.5813 102.739 73.9219C102.739 74.3182 102.329 74.6062 101.77 74.6062C101.17 74.6062 100.754 74.3368 100.695 73.9126H100.005Z" fill="black"/>
</svg>
