<svg width="133" height="133" viewBox="0 0 133 133" fill="none" xmlns="http://www.w3.org/2000/svg">
<path d="M63.4748 30.3438C65.3069 29.2951 67.6932 29.2904 69.5237 30.3438C78.7329 35.5475 87.945 40.743 97.1527 45.9499C98.8845 46.9254 100.043 48.8528 100.025 50.8483V82.1557C100.038 84.2338 98.7653 86.2072 96.9382 87.1607C87.7592 92.3357 78.585 97.517 69.4077 102.692C67.5377 103.761 65.1035 103.679 63.2919 102.522C60.54 100.927 57.7835 99.3394 55.0314 97.7457C54.469 97.4104 53.835 97.1436 53.4379 96.5983C53.789 96.1251 54.4166 96.0662 54.9266 95.8596C56.0753 95.4944 57.1303 94.908 58.1856 94.3391C58.4524 94.1565 58.7782 94.2265 59.034 94.3899C61.3871 95.7391 63.7195 97.1275 66.0806 98.4638C66.5842 98.7546 67.0943 98.3686 67.5248 98.1286C76.5321 93.0378 85.5506 87.9662 94.5564 82.8738C94.89 82.7133 95.0745 82.3591 95.0474 81.9936C95.0537 71.6659 95.049 61.3365 95.0506 51.0088C95.0887 50.5941 94.8487 50.2128 94.4737 50.043C85.3266 44.8917 76.1843 39.7325 67.0387 34.5799C66.8803 34.471 66.6926 34.4125 66.5003 34.4122C66.308 34.4119 66.1201 34.4698 65.9614 34.5783C56.8158 39.7325 47.675 44.8965 38.5295 50.0475C38.1558 50.2175 37.905 50.5925 37.9495 51.0088C37.9511 61.3365 37.9495 71.6659 37.9495 81.9951C37.9337 82.1735 37.9728 82.3524 38.0617 82.5078C38.1507 82.6632 38.2851 82.7877 38.4469 82.8644C40.8874 84.2483 43.3311 85.6225 45.7732 87.0017C47.149 87.7422 48.8382 88.1822 50.354 87.6149C51.6916 87.1351 52.6292 85.7701 52.6037 84.3499C52.6164 74.0825 52.5974 63.8136 52.6132 53.5478C52.5798 53.092 53.0121 52.7154 53.4553 52.7583C54.6279 52.7504 55.8021 52.7425 56.9748 52.7615C57.4642 52.7504 57.8011 53.2412 57.7406 53.7004C57.7358 64.0328 57.7532 74.3654 57.7327 84.6978C57.7358 87.4515 56.6045 90.4478 54.0574 91.7951C50.9195 93.4207 47.0411 93.0759 43.9411 91.5172C41.2574 90.1778 38.6964 88.597 36.0603 87.162C34.2285 86.2138 32.9619 84.2325 32.9748 82.1559V50.8483C32.9556 48.8115 34.16 46.8491 35.9458 45.8878C45.1232 40.7086 54.299 35.5254 63.4748 30.3438Z" fill="#8CC84B"/>
<path d="M71.4811 52.0306C75.4837 51.773 79.7687 51.878 83.3706 53.8498C86.1593 55.3609 87.7053 58.5322 87.7545 61.6304C87.6766 62.0483 87.2398 62.2788 86.8408 62.2501C85.6795 62.2485 84.5179 62.2659 83.3566 62.2422C82.864 62.2612 82.5777 61.807 82.5158 61.3714C82.1821 59.8891 81.3737 58.4209 79.9785 57.7059C77.8366 56.6335 75.3532 56.6875 73.0177 56.7098C71.3127 56.8004 69.4793 56.948 68.0348 57.9506C66.9258 58.7101 66.589 60.2433 66.9848 61.478C67.3579 62.3646 68.3814 62.6506 69.2187 62.9143C74.0424 64.1759 79.154 64.0504 83.8856 65.7106C85.8445 66.3875 87.7608 67.7033 88.4314 69.7543C89.3085 72.5033 88.924 75.7891 86.9682 77.9959C85.3822 79.812 83.0721 80.8004 80.7682 81.3372C77.7032 82.0206 74.5224 82.038 71.4098 81.7346C68.4829 81.4009 65.4371 80.632 63.1777 78.6377C61.2456 76.9601 60.3019 74.3462 60.3956 71.8233C60.4179 71.3972 60.8422 71.1001 61.2503 71.1351C62.4198 71.1256 63.5893 71.1225 64.7587 71.1367C65.2258 71.1033 65.5721 71.507 65.5961 71.9472C65.8119 73.3596 66.3427 74.8419 67.5743 75.6793C69.9511 77.2127 72.9335 77.1077 75.655 77.1506C77.9098 77.0506 80.4408 77.0204 82.2808 75.5301C83.2516 74.6801 83.5393 73.258 83.2769 72.0346C82.9927 71.0017 81.9121 70.5204 80.9843 70.2056C76.2224 68.6993 71.0537 69.2459 66.3379 67.5425C64.4235 66.8659 62.5721 65.5867 61.8366 63.6198C60.8103 60.8362 61.2806 57.393 63.4414 55.2606C65.5482 53.1396 68.5895 52.3227 71.4811 52.0304V52.0306Z" fill="#8CC84B"/>
</svg>
