<svg width="133" height="133" viewBox="0 0 133 133" fill="none" xmlns="http://www.w3.org/2000/svg">
<path d="M66.5001 72.6086C70.0978 72.6086 73.0143 69.7083 73.0143 66.1306C73.0143 62.5529 70.0978 59.6526 66.5001 59.6526C62.9024 59.6526 59.9858 62.5529 59.9858 66.1306C59.9858 69.7083 62.9024 72.6086 66.5001 72.6086Z" fill="#61DAFB"/>
<path fill-rule="evenodd" clip-rule="evenodd" d="M35.8703 62.722C34.393 64.0481 33.9074 65.2044 33.9074 66.1306C33.9074 67.0567 34.393 68.213 35.8703 69.5391C37.3465 70.8644 39.616 72.166 42.6219 73.3073C48.6171 75.5837 57.0587 77.0408 66.5 77.0408C75.9413 77.0408 84.3828 75.5837 90.3781 73.3073C93.384 72.166 95.6534 70.8644 97.1297 69.5391C98.6069 68.213 99.0925 67.0567 99.0925 66.1306C99.0925 65.2044 98.6069 64.0481 97.1297 62.722C95.6534 61.3968 93.384 60.0951 90.3781 58.9538C84.3828 56.6774 75.9413 55.2203 66.5 55.2203C57.0587 55.2203 48.6171 56.6774 42.6219 58.9538C39.616 60.0951 37.3465 61.3968 35.8703 62.722ZM40.9452 54.5378C47.6009 52.0106 56.6365 50.4967 66.5 50.4967C76.3634 50.4967 85.3991 52.0106 92.0548 54.5378C95.3744 55.7982 98.2238 57.3565 100.285 59.207C102.345 61.0565 103.816 63.3918 103.816 66.1306C103.816 68.8694 102.345 71.2046 100.285 73.0542C98.2238 74.9046 95.3744 76.4629 92.0548 77.7233C85.3991 80.2505 76.3634 81.7644 66.5 81.7644C56.6365 81.7644 47.6009 80.2505 40.9452 77.7233C37.6256 76.4629 34.7761 74.9046 32.7148 73.0542C30.6545 71.2046 29.1838 68.8694 29.1838 66.1306C29.1838 63.3918 30.6545 61.0565 32.7148 59.207C34.7761 57.3565 37.6256 55.7982 40.9452 54.5378Z" fill="#61DAFB"/>
<path fill-rule="evenodd" clip-rule="evenodd" d="M54.1726 38.0526C52.2815 37.4442 51.0253 37.601 50.2087 38.0699C49.3921 38.5388 48.6273 39.5422 48.2116 41.475C47.7959 43.408 47.7971 46.0115 48.3058 49.1689C49.3204 55.4667 52.2708 63.4621 56.9901 71.5906C61.7093 79.7191 67.1969 86.2578 72.1742 90.2805C74.6695 92.2973 76.9362 93.6001 78.8274 94.2085C80.7185 94.8169 81.9747 94.66 82.7913 94.1912C83.6079 93.7223 84.3726 92.7189 84.7884 90.7861C85.2041 88.8531 85.2029 86.2496 84.6942 83.0922C83.6796 76.7943 80.7291 68.799 76.0099 60.6705C71.2907 52.542 65.8031 46.0033 60.8258 41.9806C58.3305 39.9638 56.0638 38.661 54.1726 38.0526ZM63.8034 38.3234C69.3349 42.7941 75.1732 49.8215 80.1064 58.3185C85.0395 66.8155 88.2403 75.3573 89.3679 82.3564C89.9303 85.8475 89.998 89.0825 89.417 91.7839C88.8359 94.4856 87.5381 96.9126 85.163 98.2762C82.7879 99.6399 80.0254 99.544 77.3821 98.6937C74.739 97.8433 71.9556 96.1676 69.1966 93.9376C63.6651 89.467 57.8268 82.4395 52.8936 73.9425C47.9605 65.4455 44.7597 56.9038 43.6321 49.9047C43.0697 46.4136 43.002 43.1786 43.583 40.4771C44.1641 37.7755 45.4619 35.3485 47.837 33.9849C50.2121 32.6212 52.9746 32.717 55.6179 33.5674C58.261 34.4177 61.0444 36.0935 63.8034 38.3234Z" fill="#61DAFB"/>
<path fill-rule="evenodd" clip-rule="evenodd" d="M84.7883 41.475C84.3726 39.5422 83.6078 38.5388 82.7912 38.0699C81.9746 37.6011 80.7184 37.4442 78.8273 38.0526C76.9361 38.661 74.6694 39.9638 72.1741 41.9806C67.1968 46.0034 61.7092 52.542 56.99 60.6705C52.2708 68.799 49.3203 76.7944 48.3057 83.0922C47.797 86.2496 47.7958 88.8531 48.2115 90.7861C48.6273 92.7189 49.392 93.7223 50.2086 94.1912C51.0252 94.6601 52.2814 94.8169 54.1725 94.2085C56.0637 93.6001 58.3304 92.2973 60.8257 90.2805C65.803 86.2578 71.2906 79.7191 76.0098 71.5906C80.7291 63.4621 83.6795 55.4668 84.6941 49.1689C85.2028 46.0115 85.204 43.408 84.7883 41.475ZM89.3678 49.9047C88.2402 56.9038 85.0394 65.4456 80.1063 73.9426C75.1731 82.4396 69.3348 89.467 63.8033 93.9377C61.0443 96.1676 58.2609 97.8434 55.6178 98.6937C52.9745 99.5441 50.212 99.6399 47.8369 98.2762C45.4618 96.9126 44.164 94.4856 43.5829 91.784C43.0019 89.0825 43.0696 85.8475 43.632 82.3565C44.7596 75.3573 47.9604 66.8156 52.8935 58.3186C57.8267 49.8216 63.665 42.7941 69.1965 38.3235C71.9555 36.0935 74.7389 34.4178 77.382 33.5674C80.0253 32.7171 82.7878 32.6212 85.1629 33.9849C87.538 35.3485 88.8358 37.7756 89.4169 40.4772C89.9979 43.1786 89.9303 46.4136 89.3678 49.9047Z" fill="#61DAFB"/>
</svg>
