<svg width="133" height="133" viewBox="0 0 133 133" fill="none" xmlns="http://www.w3.org/2000/svg">
<path d="M66.5 44.3394C56.6478 44.3394 50.4906 49.264 48.0273 59.1125C51.7222 54.1878 56.0325 52.3417 60.9581 53.5724C63.7688 54.2747 65.7775 56.3138 68.0014 58.5701C71.6233 62.2456 75.8153 66.4995 84.9727 66.4995C94.8239 66.4995 100.982 61.5748 103.444 51.7255C99.7505 56.6501 95.4402 58.4971 90.5136 57.2664C87.7039 56.5642 85.6952 54.525 83.4712 52.2687C79.8493 48.5932 75.6564 44.3394 66.5 44.3394V44.3394ZM48.0273 66.4995C38.1761 66.4995 32.0179 71.4242 29.5555 81.2736C33.2495 76.3489 37.5598 74.5019 42.4863 75.7335C45.2961 76.4367 47.3048 78.4749 49.5287 80.7303C53.1507 84.4058 57.3436 88.6606 66.5 88.6606C76.3522 88.6606 82.5094 83.7359 84.9727 73.8865C81.2778 78.8112 76.9675 80.6582 72.0419 79.4266C69.2312 78.7253 67.2225 76.6852 64.9986 74.4298C61.3766 70.7543 57.1846 66.4995 48.0273 66.4995V66.4995Z" fill="#06B6D4"/>
</svg>
